<?xml version="1.0" encoding="UTF-8"?>
<svg id="Layer_1" data-name="Layer 1" xmlns="http://www.w3.org/2000/svg" viewBox="0 0 130 130">
  <title>Control room</title>
<metadata><?xpacket begin="﻿" id="W5M0MpCehiHzreSzNTczkc9d"?>
<x:xmpmeta xmlns:x="adobe:ns:meta/" x:xmptk="XMP Core 5.5.0">
 <rdf:RDF xmlns:rdf="http://www.w3.org/1999/02/22-rdf-syntax-ns#">
  <rdf:Description rdf:about=""
    xmlns:xmpMM="http://ns.adobe.com/xap/1.0/mm/"
    xmlns:xmp="http://ns.adobe.com/xap/1.0/"
    xmlns:fwr="http://ns.fotoware.com/iptcxmp-reserved/1.0/"
    xmlns:skyview="http://ns.fotoware.com/skyview/1.0/"
    xmlns:photoshop="http://ns.adobe.com/photoshop/1.0/"
    xmlns:exif="http://ns.adobe.com/exif/1.0/"
    xmlns:tiff="http://ns.adobe.com/tiff/1.0/"
    xmlns:crs="http://ns.adobe.com/camera-raw-settings/1.0/"
    xmlns:dc="http://purl.org/dc/elements/1.1/"
   xmpMM:DocumentID="xmp.did:05F94D319A72452C A914D19CAF758EBB"
   xmpMM:OriginalDocumentID="xmp.did:05F94D319A72452C A914D19CAF758EBB"
   xmpMM:InstanceID="xmp.iid:22C078C100974061 8DC4C3E17FA9EBA1"
   xmp:CreateDate="2025-06-06T20:54:46+01:00"
   xmp:MetadataDate="2025-06-06T21:01:04+01:00"
   fwr:UniqueId="6A5E632843A54B39 91EE6282E268F14B"
   fwr:DocumentText=" "
   skyview:Access="Internal"
   skyview:CustomField22="ApprovedIcons - Approved"
   skyview:CustomField30="Icons"
   photoshop:SidecarForExtension="svg"
   photoshop:ColorMode="3"
   exif:PixelXDimension="100"
   exif:PixelYDimension="100"
   tiff:Orientation="1"
   tiff:XResolution="7200000/100000"
   tiff:YResolution="7200000/100000"
   tiff:ResolutionUnit="2"
   crs:HasCrop="False">
   <xmp:XMPFileStamps>
    <rdf:Seq>
     <rdf:li>2025-06-06T20:54:46+01:00</rdf:li>
     <rdf:li>2025-06-06T21:01:04+01:00</rdf:li>
    </rdf:Seq>
   </xmp:XMPFileStamps>
   <fwr:UploadInfo
    fwr:UploadedBy="OLST@equinor.com"
    fwr:UploadedByFullName="Olga Stangeland"
    fwr:UploadTime="2025-06-06T19:54:46.802554Z"/>
   <fwr:History>
    <rdf:Seq>
     <rdf:li>A=5049 N=0 E=FWW D=2025-06-06 T=20:01:04 U=15154 V=action</rdf:li>
    </rdf:Seq>
   </fwr:History>
   <dc:title>
    <rdf:Alt>
     <rdf:li xml:lang="x-default">Control room</rdf:li>
    </rdf:Alt>
   </dc:title>
  </rdf:Description>
 </rdf:RDF>
</x:xmpmeta>
                                                                                                    
                                                                                                    
                                                                                                    
                                                                                                    
                                                                                                    
                                                                                                    
                                                                                                    
                                                                                                    
                                                                                                    
                                                                                                    
                                                                                                    
                                                                                                    
                                                                                                    
                                                                                                    
                                                                                                    
                                                                                                    
                                                                                                    
                             
<?xpacket end="w"?></metadata>
<defs>
    <style>
      .cls-1 {
        stroke-linecap: round;
      }

      .cls-1, .cls-2 {
        fill: none;
        stroke: #aeaeae;
        stroke-miterlimit: 10;
        stroke-width: 3px;
      }
    </style>
  </defs>
  <path class="cls-2" d="M38.993,59.189l-23.923,14.918c-1.213.756-2.785-.116-2.785-1.545v-21.509c0-1.9.98-3.666,2.592-4.671l23.923-14.918c1.213-.756,2.785.116,2.785,1.545v21.509c0,1.9-.98,3.666-2.592,4.671Z"/>
  <path class="cls-2" d="M78.769,33.004l-23.923,14.918c-1.213.756-2.785-.116-2.785-1.545v-21.509c0-1.9.98-3.666,2.592-4.671l23.923-14.918c1.213-.756,2.785.116,2.785,1.545v21.509c0,1.9-.98,3.666-2.592,4.671Z"/>
  <path class="cls-1" d="M108.016,51.178l-10.82-5.164c-1.715-.818-3.73-.695-5.332.327l-13.056,8.062"/>
  <line class="cls-1" x1="84.78" y1="78.517" x2="101.228" y2="68.213"/>
  <path class="cls-1" d="M68.365,61.062l-37.637,23.578c-1.205.769-1.095,2.563.195,3.179l19.411,9.264c1.715.818,3.73.695,5.332-.327l12.5-7.831"/>
  <circle class="cls-1" cx="110.385" cy="43.05" r="8.352"/>
  <path class="cls-1" d="M116.984,55.368l1.458,5.464c1.024,3.838,1.335,7.786.921,11.704l-2.949,27.905c-.277,2.618-2.894,4.626-6.03,4.626h0c-3.136,0-5.753-2.008-6.03-4.626l-2.949-27.905c-.414-3.918-.103-7.866.921-11.704l1.458-5.464c.619-2.318,3.073-3.966,5.907-3.966h1.384c2.834,0,5.288,1.648,5.907,3.966Z"/>
  <circle class="cls-1" cx="77.323" cy="62.983" r="8.352"/>
  <path class="cls-1" d="M83.922,75.301l1.458,5.464c1.024,3.838,1.335,7.786.921,11.704l-2.949,27.905c-.277,2.618-2.894,4.626-6.03,4.626h0c-3.136,0-5.753-2.008-6.03-4.626l-2.949-27.905c-.414-3.918-.103-7.866.921-11.704l1.458-5.464c.619-2.318,3.073-3.966,5.907-3.966h1.384c2.834,0,5.288,1.648,5.907,3.966Z"/>
  <line class="cls-1" x1="26.935" y1="52.604" x2="26.935" y2="57.504"/>
  <line class="cls-1" x1="20.437" y1="59.308" x2="20.437" y2="62.182"/>
  <line class="cls-1" x1="33.671" y1="44.068" x2="33.671" y2="53.127"/>
  <path class="cls-1" d="M71.683,22.287c.988,3.79-.168,8.794-2.583,11.176s-5.173,1.241-6.161-2.549c-.988-3.79.168-8.794,2.583-11.176s5.173-1.241,6.161,2.549Z"/>
  <line class="cls-1" x1="29.887" y1="86.002" x2="29.887" y2="113.011"/>
  <line class="cls-1" x1="53.417" y1="98.589" x2="53.417" y2="123.781"/>
</svg>
