<?xml version="1.0" encoding="utf-8"?>
<!-- Generator: Adobe Illustrator 25.2.1, SVG Export Plug-In . SVG Version: 6.00 Build 0)  -->
<svg version="1.1" xmlns="http://www.w3.org/2000/svg" xmlns:xlink="http://www.w3.org/1999/xlink" x="0px" y="0px"
	 viewBox="0 0 130 130" enable-background="new 0 0 130 130" xml:space="preserve">
<title>equinor-ccs-carbon-storage-01</title>
<desc>SVG outlined icon for use in PowerPoint and design programs. Colour and scale can be adjusted once inserted in the PowerPoint slide.</desc>
<metadata><?xpacket begin="﻿" id="W5M0MpCehiHzreSzNTczkc9d"?>
<x:xmpmeta xmlns:x="adobe:ns:meta/" x:xmptk="XMP Core 5.5.0">
 <rdf:RDF xmlns:rdf="http://www.w3.org/1999/02/22-rdf-syntax-ns#">
  <rdf:Description rdf:about=""
    xmlns:xmpMM="http://ns.adobe.com/xap/1.0/mm/"
    xmlns:xmp="http://ns.adobe.com/xap/1.0/"
    xmlns:photoshop="http://ns.adobe.com/photoshop/1.0/"
    xmlns:exif="http://ns.adobe.com/exif/1.0/"
    xmlns:tiff="http://ns.adobe.com/tiff/1.0/"
    xmlns:crs="http://ns.adobe.com/camera-raw-settings/1.0/"
    xmlns:fwr="http://ns.fotoware.com/iptcxmp-reserved/1.0/"
    xmlns:skyview="http://ns.fotoware.com/skyview/1.0/"
    xmlns:dc="http://purl.org/dc/elements/1.1/"
   xmpMM:DocumentID="xmp.did:F7084951-72CE-4153-85CD-52221FEBA1D7"
   xmpMM:OriginalDocumentID="xmp.did:F7084951-72CE-4153-85CD-52221FEBA1D7"
   xmpMM:InstanceID="xmp.iid:DD157CDD-B938-4AD7-A4DB-E1203EC26A2E"
   xmp:CreatorTool="FotoWare FotoStation"
   xmp:CreateDate="2022-12-05T15:51:58+01:00"
   xmp:MetadataDate="2025-06-03T09:37:08+01:00"
   photoshop:Source="Equinor"
   photoshop:ColorMode="3"
   photoshop:SidecarForExtension="svg"
   photoshop:DateCreated="2021-05-11"
   exif:PixelXDimension="100"
   exif:PixelYDimension="100"
   tiff:Orientation="1"
   tiff:XResolution="7200000/100000"
   tiff:YResolution="7200000/100000"
   tiff:ResolutionUnit="2"
   crs:HasCrop="False"
   fwr:UniqueId="1158037D94304EBC 830AF5CB162D9649"
   fwr:DocumentText=" "
   skyview:CustomField30="Icons"
   skyview:CustomField22="ApprovedIcons">
   <xmp:XMPFileStamps>
    <rdf:Seq>
     <rdf:li>2025-06-03T09:37:08+01:00</rdf:li>
    </rdf:Seq>
   </xmp:XMPFileStamps>
   <fwr:UploadInfo
    fwr:UploadedBy="christer.strandberg@fotoware.com"
    fwr:UploadedByFullName="Christer Strandberg"
    fwr:UploadTime="2022-12-07T07:30:09.992691Z"/>
   <fwr:ConsentFlags>
    <rdf:Bag>
     <rdf:li>NoConsentNeeded</rdf:li>
    </rdf:Bag>
   </fwr:ConsentFlags>
   <fwr:History>
    <rdf:Seq>
     <rdf:li>A=5021 N=0 E=FWW D=2023-09-19 T=10:53:40 U=15002 V=action</rdf:li>
     <rdf:li>A=5000 N=0 E=FWW D=2024-04-24 T=11:49:18 U=15002 V=action</rdf:li>
    </rdf:Seq>
   </fwr:History>
   <dc:title>
    <rdf:Alt>
     <rdf:li xml:lang="x-default">CCS carbon storage 1</rdf:li>
    </rdf:Alt>
   </dc:title>
   <dc:rights>
    <rdf:Alt>
     <rdf:li xml:lang="x-default">Equinor</rdf:li>
    </rdf:Alt>
   </dc:rights>
   <dc:description>
    <rdf:Alt>
     <rdf:li xml:lang="x-default">SVG outlined icon for use in PowerPoint and design programs. Colour and scale can be adjusted once inserted in the PowerPoint slide.</rdf:li>
    </rdf:Alt>
   </dc:description>
   <dc:subject>
    <rdf:Bag>
     <rdf:li>carbon storage and capture</rdf:li>
     <rdf:li>capture</rdf:li>
     <rdf:li>storage</rdf:li>
     <rdf:li>caron</rdf:li>
     <rdf:li>icons</rdf:li>
    </rdf:Bag>
   </dc:subject>
  </rdf:Description>
 </rdf:RDF>
</x:xmpmeta>
                                                                                                    
                                                                                                    
                                                                                                    
                                                                                                    
                                                                                                    
                                                                                                    
                                                                                                    
                                                                                                    
                                                                                                    
                                                                                                    
                                                                                                    
                                                                                                    
                                                                                                    
                                                                                                    
                                                                                                    
                                                                                                    
       
<?xpacket end="w"?></metadata>
<g id="guides">
</g>
<g id="artwork">
	<g>
		<path fill="#AEAEAE" d="M10.983,25.572l8.17-4.413c0.148-0.08,0.326-0.081,0.476,0l7.22,3.899c1.042,0.563,2.285,0.562,3.326,0
			l7.22-3.899c0.148-0.08,0.326-0.08,0.475,0l7.22,3.899c1.041,0.563,2.285,0.563,3.326,0l7.22-3.899
			c0.148-0.08,0.326-0.081,0.476,0l7.22,3.899c1.042,0.563,2.285,0.562,3.326,0l7.219-3.899c0.148-0.08,0.326-0.081,0.476,0
			l7.22,3.899c1.042,0.563,2.285,0.562,3.326,0l7.219-3.899c0.148-0.08,0.326-0.081,0.476,0l8.17,4.413
			c0.227,0.123,0.471,0.181,0.711,0.181c0.534,0,1.05-0.286,1.321-0.788c0.394-0.729,0.122-1.639-0.607-2.033l-8.17-4.413
			c-1.041-0.563-2.285-0.563-3.327,0l-7.219,3.899c-0.149,0.08-0.327,0.08-0.476,0l-7.22-3.899c-1.042-0.563-2.285-0.563-3.326,0
			l-7.219,3.899c-0.149,0.08-0.327,0.08-0.476,0l-7.22-3.899c-1.042-0.563-2.285-0.563-3.326,0l-7.22,3.899
			c-0.148,0.08-0.326,0.08-0.475,0l-7.22-3.899c-1.041-0.563-2.285-0.563-3.326,0l-7.22,3.899c-0.149,0.08-0.327,0.08-0.476,0
			l-7.22-3.899c-1.042-0.563-2.285-0.563-3.326,0l-8.17,4.413c-0.729,0.394-1,1.304-0.607,2.033S10.254,25.966,10.983,25.572z"/>
		<path fill="#AEAEAE" d="M29.236,18.254l8.17-4.412c0.148-0.08,0.327-0.08,0.475,0l7.22,3.899c1.042,0.563,2.285,0.563,3.326,0
			l7.219-3.899c0.148-0.081,0.326-0.081,0.476,0l7.22,3.899c1.042,0.563,2.285,0.563,3.326,0l7.219-3.899
			c0.148-0.081,0.326-0.081,0.476,0l7.22,3.899c1.041,0.563,2.285,0.563,3.326,0l7.22-3.899c0.148-0.08,0.326-0.08,0.475,0
			l7.221,3.899c1.042,0.563,2.285,0.563,3.326,0l7.219-3.899c0.148-0.081,0.326-0.081,0.476,0l8.17,4.412
			c0.227,0.123,0.471,0.181,0.711,0.181c0.534,0,1.05-0.286,1.321-0.788c0.394-0.729,0.122-1.639-0.607-2.033l-8.171-4.412
			c-1.042-0.563-2.285-0.563-3.326,0l-7.219,3.899c-0.149,0.08-0.327,0.08-0.476,0l-7.22-3.899c-1.041-0.563-2.285-0.563-3.326,0
			l-7.22,3.899c-0.148,0.08-0.326,0.08-0.475,0l-7.221-3.899c-1.042-0.563-2.285-0.563-3.326,0l-7.219,3.899
			c-0.149,0.08-0.327,0.08-0.476,0l-7.22-3.899c-1.042-0.563-2.285-0.563-3.326,0l-7.219,3.899c-0.149,0.08-0.327,0.08-0.476,0
			l-7.22-3.899c-1.041-0.563-2.285-0.563-3.326,0l-8.17,4.412c-0.729,0.394-1,1.304-0.607,2.033
			C27.597,18.376,28.507,18.649,29.236,18.254z"/>
		<path fill="#AEAEAE" d="M123.694,111.632c-0.191-0.083-4.748-2.026-10.987-2.026c-5.81,0-9.664,1.375-13.064,2.587
			c-2.932,1.046-5.465,1.949-8.887,1.949c-2.919,0-4.914-0.889-7.438-2.014c-3.602-1.605-8.032-3.578-16.817-3.816V89.337h56.305
			c0.829,0,1.5-0.672,1.5-1.5s-0.671-1.5-1.5-1.5H100.89V71.008c0-0.408-0.167-0.8-0.461-1.082L85.941,56.023
			c-0.279-0.268-0.651-0.417-1.039-0.417H45.098c-0.387,0-0.759,0.15-1.039,0.417L29.571,69.926
			c-0.295,0.282-0.461,0.674-0.461,1.082v15.329H7.195c-0.829,0-1.5,0.672-1.5,1.5s0.671,1.5,1.5,1.5H63.5v18.984
			c-9.796,0.173-17.626,2.357-23.39,3.986c-3.629,1.025-6.496,1.835-8.623,1.835c-2.885,0-5.729-0.954-8.479-1.877
			c-2.823-0.948-5.743-1.928-8.789-1.928c-5.896,0-7.865,1.215-8.2,1.458c-0.67,0.487-0.844,1.443-0.357,2.113
			s1.4,0.836,2.069,0.349c0.015-0.009,1.571-0.92,6.488-0.92c2.556,0,5.12,0.86,7.834,1.771c2.979,1,6.059,2.033,9.434,2.033
			c2.542,0,5.585-0.859,9.438-1.948c5.903-1.668,13.212-3.705,22.574-3.873v6.956c0,0.828,0.671,1.5,1.5,1.5s1.5-0.672,1.5-1.5
			v-6.963c8.123,0.227,12.08,1.988,15.597,3.554c2.624,1.169,5.102,2.273,8.659,2.273c3.941,0,6.833-1.031,9.895-2.123
			c3.327-1.187,6.766-2.413,12.057-2.413c5.587,0,9.755,1.762,9.794,1.778c0.763,0.334,1.644-0.02,1.973-0.779
			C124.803,112.844,124.454,111.961,123.694,111.632z M32.11,71.647l13.591-13.042h38.598L97.89,71.647v14.689H32.11V71.647z"/>
		<path fill="#AEAEAE" d="M53.066,67.551c1.489,0,2.664,0.63,3.63,1.658c0.167,0.188,0.356,0.188,0.524,0.021l1.385-1.385
			c0.146-0.168,0.168-0.377-0.021-0.566c-1.321-1.363-2.958-2.245-5.518-2.245c-4.238,0-7.344,3.021-7.344,7.594
			c0,4.574,3.105,7.596,7.344,7.596c2.644,0,4.343-1.007,5.539-2.56c0.104-0.147,0.063-0.315-0.126-0.462l-1.385-1.133
			c-0.21-0.188-0.378-0.146-0.546,0.042c-0.734,0.944-1.741,1.595-3.482,1.595c-2.728,0-4.595-2.203-4.595-5.078
			C48.471,69.754,50.338,67.551,53.066,67.551z"/>
		<path fill="#AEAEAE" d="M66.959,67.551c1.489,0,2.664,0.63,3.63,1.658c0.167,0.188,0.356,0.188,0.524,0.021l1.385-1.385
			c0.146-0.168,0.168-0.377-0.021-0.566c-1.321-1.363-2.958-2.245-5.518-2.245c-4.238,0-7.344,3.021-7.344,7.594
			c0,4.574,3.105,7.596,7.344,7.596c2.644,0,4.343-1.007,5.539-2.56c0.104-0.147,0.063-0.315-0.126-0.462l-1.385-1.133
			c-0.21-0.188-0.378-0.146-0.546,0.042c-0.734,0.944-1.741,1.595-3.482,1.595c-2.728,0-4.595-2.203-4.595-5.078
			C62.365,69.754,64.232,67.551,66.959,67.551z"/>
		<path fill="#AEAEAE" d="M79.847,71.285c-1.573-0.419-2.728-0.775-2.728-2.014c0-0.965,0.818-1.741,2.35-1.741
			c1.154,0,1.993,0.336,2.791,1.028c0.21,0.168,0.42,0.168,0.545-0.042l0.966-1.385c0.146-0.21,0.126-0.398-0.042-0.546
			c-0.966-0.902-2.351-1.552-4.28-1.552c-2.832,0-5.099,1.72-5.099,4.343c0,2.832,2.119,3.734,4.49,4.363
			c2.119,0.566,2.896,1.007,2.896,2.203c0,0.986-0.776,1.783-2.329,1.783s-2.77-0.629-3.902-1.679
			c-0.188-0.167-0.378-0.167-0.546,0.042l-1.027,1.364c-0.126,0.188-0.126,0.398,0.021,0.587c1.112,1.301,3.126,2.183,5.476,2.183
			c3.357,0,5.057-2.077,5.057-4.427C84.484,72.859,82.575,72.041,79.847,71.285z"/>
	</g>
</g>
</svg>
