<?xml version="1.0" encoding="UTF-8"?>
<svg id="Layer_1" data-name="Layer 1" xmlns="http://www.w3.org/2000/svg" viewBox="0 0 512 512">
  <defs>
    <style>
      .cls-1 {
        fill: #2a4d74;
      }
    </style>
  </defs>
  <path class="cls-1" d="M269.66,500c-59.47,0-107.66-46.57-109.71-106.02l-.03-1.08c-.97-44.25-35.47-80.5-79.63-83.65-27.79-1.98-49.46-24.61-50.42-52.62-.52-14.8,4.55-28.31,14.66-39.14,10.1-10.83,23.27-16.82,38.07-17.32.62-.03,1.29-.04,1.87-.04,22.59,0,42.51,13.35,50.73,34.02,13.27,33.35,45.35,54.06,79.66,54.06,7.96,0,16.04-1.11,24.03-3.44,1.85-.54,3.72-1.03,5.61-1.48,26.23-6.18,48.03-24.33,58.86-49.01,10.83-24.68,9.43-53.01-3.78-76.5-7.7-13.69-11.89-28.8-12.44-44.89-.9-26.03,8.4-50.85,26.17-69.9,17.78-19.05,41.91-30.03,67.95-30.93,1.15-.04,2.28-.06,3.4-.06,52.82,0,95.62,41.36,97.44,94.17,1.54,44.78-27.46,84.72-70.51,97.12-25.9,7.45-46.78,26.65-56.39,51.83-9.61,25.18-6.83,53.41,7.52,76.22,10.26,16.31,16.04,35.36,16.72,55.06,1.01,29.31-9.46,57.27-29.47,78.71-20.01,21.44-47.18,33.81-76.49,34.82-1.29.04-2.56.06-3.83.06h0Z"/>
</svg>