<?xml version="1.0" encoding="UTF-8"?>
<svg id="Layer_1" data-name="Layer 1" xmlns="http://www.w3.org/2000/svg" viewBox="0 0 500 110">
  <defs>
    <style>
      .cls-1 {
        fill: #2a4d74;
      }

      .cls-2 {
        fill: #243746;
      }
    </style>
  </defs>
  <g>
    <path class="cls-2" d="M108.64,87.47c-1.03,0-1.5-.63-1.11-1.66l21.56-52.53c.32-.79.87-1.11,1.66-1.11h5.92c.79,0,1.42.32,1.74,1.11l21.49,52.53c.39,1.03,0,1.66-1.11,1.66h-7.98c-.79,0-1.34-.39-1.58-1.03l-4.35-10.98h-22.28l-4.35,10.98c-.32.71-.87,1.03-1.66,1.03h-7.98ZM126.18,66.54h15.17l-7.58-19.2-7.58,19.2Z"/>
    <path class="cls-2" d="M163.23,68.51c0-11.45,8.29-19.91,20.7-19.91,4.9,0,9.48,1.26,12.64,4.19.71.63.87,1.34.39,2.13l-3,4.9c-.47.79-1.11.95-1.9.39-2.13-1.66-4.5-2.76-7.98-2.76-6.87,0-11.06,4.74-11.06,11.06s4.19,11.06,11.06,11.06c3.47,0,5.85-1.03,8.06-2.76.71-.47,1.42-.32,1.9.47l2.92,4.82c.47.79.32,1.42-.24,1.97-3,2.92-7.74,4.34-12.8,4.34-12.4,0-20.7-8.45-20.7-19.91Z"/>
    <path class="cls-2" d="M205.97,46.87c-1.03.32-1.74-.16-1.74-1.18v-7.03c0-.79.4-1.34,1.19-1.66l7.11-2.53c1.03-.39,1.66.16,1.66,1.19v7.19c0,.79-.32,1.34-1.18,1.66l-7.03,2.37ZM205.97,87.47c-.87,0-1.42-.55-1.42-1.42v-32.94c0-.79.39-1.34,1.19-1.66l6.48-2.21c1.03-.4,1.66.16,1.66,1.18v35.63c0,.87-.55,1.42-1.5,1.42h-6.4Z"/>
    <path class="cls-2" d="M221.45,68.51c0-12.17,8.29-19.91,18.8-19.91,5.45,0,9.87,2.21,11.93,5.06v-17.69c0-.79.47-1.34,1.19-1.66l6.48-2.45c1.03-.32,1.66.08,1.66,1.18v53.01c0,.87-.47,1.42-1.42,1.42h-6.4c-.95,0-1.5-.55-1.5-1.42v-2.61c-2.05,2.61-6.48,4.98-12.01,4.98-12.17,0-18.72-9.16-18.72-19.91ZM252.26,68.51c0-7.43-4.5-11.3-10.66-11.3s-10.58,3.87-10.58,11.3,4.58,11.3,10.58,11.3,10.66-3.95,10.66-11.3Z"/>
    <path class="cls-2" d="M286.15,87.47c-.47,0-.95-.24-1.11-.79l-16.75-53.4c-.24-.71.16-1.11.79-1.11h3.87c.55,0,.95.32,1.11.79l13.9,45.66,14.06-45.66c.16-.47.63-.79,1.11-.79h4.03c.47,0,.95.32,1.11.79l14.06,45.66,13.9-45.66c.16-.47.55-.79,1.11-.79h3.87c.63,0,1.03.4.79,1.11l-16.75,53.4c-.16.55-.63.79-1.11.79h-3.63c-.47,0-.95-.32-1.11-.79l-14.22-45.74-14.3,45.74c-.16.47-.63.79-1.11.79h-3.63Z"/>
    <path class="cls-2" d="M342.56,68.44c0-12.48,9-19.83,18.72-19.83,6.08,0,11.14,2.84,13.51,6.95v-4.11c0-.47.24-.87.79-1.11l3.32-1.19c.63-.24,1.03,0,1.03.71v36.65c0,.55-.32.95-.95.95h-3.24c-.55,0-.95-.39-.95-.95v-4.98c-2.21,3.71-7.5,6.87-13.75,6.87-10.66,0-18.48-8.21-18.48-19.98ZM374.87,68.44c0-9.95-6.32-14.77-13.51-14.77s-13.59,5.06-13.59,14.77,6.56,14.93,13.59,14.93,13.51-4.5,13.51-14.93Z"/>
    <path class="cls-2" d="M408.68,85.82c.24.55.08,1.03-.55,1.34-1.66.79-3.24,1.26-5.13,1.26-6.56,0-9.56-4.19-9.56-11.14v-22.99h-5.77c-.55,0-.95-.39-.95-1.03v-2.76c0-.55.39-.95.95-.95h5.77v-6.48c0-.55.24-.87.71-1.11l3.32-1.18c.63-.32,1.11.08,1.11.71v8.06h7.5c.63,0,.95.4.95.95v2.76c0,.63-.32,1.03-.95,1.03h-7.5v22.91c0,4.19,1.97,6.08,4.82,6.08,1.11,0,1.97-.24,3.08-.71.55-.24,1.03-.08,1.18.55l1.03,2.69Z"/>
    <path class="cls-2" d="M413.42,68.51c0-11.45,8.29-19.91,19.59-19.91,4.98,0,8.93,1.34,12.09,3.79.55.4.55.79.32,1.34l-1.58,2.61c-.32.55-.79.71-1.26.32-2.29-1.66-5.06-3-9.16-3-9.24,0-14.77,6.56-14.77,14.85s5.69,14.85,14.77,14.85c4.19,0,7.19-1.5,9.32-3.08.47-.32.95-.24,1.26.24l1.5,2.61c.24.47.32.87.08,1.11-2.37,1.97-6.87,4.19-12.56,4.19-11.22,0-19.59-8.45-19.59-19.91Z"/>
    <path class="cls-2" d="M455.53,87.47c-.55,0-.95-.39-.95-.95v-52.53c0-.47.24-.87.79-1.11l3.24-1.18c.63-.24,1.11.08,1.11.79v22.51c2.29-3.87,7.03-6.4,12.32-6.4,8.77,0,14.69,5.92,14.69,16.27v21.64c0,.55-.4.95-.95.95h-3.24c-.63,0-.95-.39-.95-.95v-21.25c0-7.5-4.03-11.61-10.66-11.61s-11.22,4.34-11.22,11.61v21.25c0,.55-.39.95-.95.95h-3.24Z"/>
  </g>
  <path class="cls-1" d="M54.44,100c-10.97,0-19.86-8.59-20.23-19.55v-.2c-.18-8.16-6.55-14.85-14.69-15.43-5.12-.37-9.12-4.54-9.3-9.71-.1-2.73.84-5.22,2.7-7.22,1.86-2,4.29-3.1,7.02-3.19.11,0,.24,0,.35,0,4.17,0,7.84,2.46,9.36,6.27,2.45,6.15,8.36,9.97,14.69,9.97,1.47,0,2.96-.21,4.43-.64.34-.1.69-.19,1.03-.27,4.84-1.14,8.86-4.49,10.86-9.04,2-4.55,1.74-9.78-.7-14.11-1.42-2.53-2.19-5.31-2.29-8.28-.17-4.8,1.55-9.38,4.83-12.89,3.28-3.51,7.73-5.54,12.53-5.7.21,0,.42-.01.63-.01,9.74,0,17.63,7.63,17.97,17.37.28,8.26-5.06,15.63-13,17.91-4.78,1.37-8.63,4.92-10.4,9.56-1.77,4.64-1.26,9.85,1.39,14.06,1.89,3.01,2.96,6.52,3.08,10.15.19,5.41-1.74,10.56-5.44,14.52-3.69,3.95-8.7,6.23-14.11,6.42-.24,0-.47.01-.71.01h0Z"/>
</svg>